<mxfile host="app.diagrams.net" agent="Mozilla/5.0 (Macintosh; Intel Mac OS X 10_15_7) AppleWebKit/537.36 (KHTML, like Gecko) Chrome/124.0.0.0 Safari/537.36" version="26.0.11">
  <diagram name="Page-1" id="r442cKApe8Ec8aWfdIED">
    <mxGraphModel dx="2150" dy="2459" grid="0" gridSize="10" guides="1" tooltips="1" connect="1" arrows="1" fold="1" page="0" pageScale="1" pageWidth="850" pageHeight="1100" background="#FFFFFF" math="0" shadow="1">
      <root>
        <mxCell id="0" />
        <mxCell id="1" parent="0" />
        <mxCell id="RN5SD-zegDyc9XwIWD_d-4" value="-3" style="rounded=0;whiteSpace=wrap;html=1;" vertex="1" parent="1">
          <mxGeometry x="-990" y="-1230" width="120" height="270" as="geometry" />
        </mxCell>
        <mxCell id="RN5SD-zegDyc9XwIWD_d-8" value="" style="endArrow=none;html=1;rounded=0;exitX=-0.008;exitY=0.178;exitDx=0;exitDy=0;exitPerimeter=0;" edge="1" parent="1">
          <mxGeometry width="50" height="50" relative="1" as="geometry">
            <mxPoint x="-989.9999999999998" y="-1199.94" as="sourcePoint" />
            <mxPoint x="-868.04" y="-1200" as="targetPoint" />
          </mxGeometry>
        </mxCell>
        <mxCell id="RN5SD-zegDyc9XwIWD_d-9" value="" style="endArrow=none;html=1;rounded=0;exitX=-0.008;exitY=0.178;exitDx=0;exitDy=0;exitPerimeter=0;" edge="1" parent="1">
          <mxGeometry width="50" height="50" relative="1" as="geometry">
            <mxPoint x="-990" y="-1160" as="sourcePoint" />
            <mxPoint x="-868" y="-1160" as="targetPoint" />
          </mxGeometry>
        </mxCell>
        <mxCell id="RN5SD-zegDyc9XwIWD_d-10" value="" style="endArrow=none;html=1;rounded=0;exitX=-0.008;exitY=0.178;exitDx=0;exitDy=0;exitPerimeter=0;" edge="1" parent="1">
          <mxGeometry width="50" height="50" relative="1" as="geometry">
            <mxPoint x="-991" y="-1120" as="sourcePoint" />
            <mxPoint x="-869" y="-1120" as="targetPoint" />
          </mxGeometry>
        </mxCell>
        <mxCell id="RN5SD-zegDyc9XwIWD_d-11" value="" style="endArrow=none;html=1;rounded=0;exitX=-0.008;exitY=0.178;exitDx=0;exitDy=0;exitPerimeter=0;" edge="1" parent="1">
          <mxGeometry width="50" height="50" relative="1" as="geometry">
            <mxPoint x="-990" y="-1080" as="sourcePoint" />
            <mxPoint x="-868" y="-1080" as="targetPoint" />
          </mxGeometry>
        </mxCell>
        <mxCell id="RN5SD-zegDyc9XwIWD_d-12" value="" style="endArrow=none;html=1;rounded=0;exitX=-0.008;exitY=0.178;exitDx=0;exitDy=0;exitPerimeter=0;" edge="1" parent="1">
          <mxGeometry width="50" height="50" relative="1" as="geometry">
            <mxPoint x="-991" y="-1040" as="sourcePoint" />
            <mxPoint x="-869" y="-1040" as="targetPoint" />
          </mxGeometry>
        </mxCell>
        <mxCell id="RN5SD-zegDyc9XwIWD_d-13" value="" style="endArrow=none;html=1;rounded=0;exitX=-0.008;exitY=0.178;exitDx=0;exitDy=0;exitPerimeter=0;" edge="1" parent="1">
          <mxGeometry width="50" height="50" relative="1" as="geometry">
            <mxPoint x="-990" y="-1005.34" as="sourcePoint" />
            <mxPoint x="-868" y="-1005.34" as="targetPoint" />
          </mxGeometry>
        </mxCell>
        <mxCell id="RN5SD-zegDyc9XwIWD_d-15" value="" style="rounded=0;whiteSpace=wrap;html=1;" vertex="1" parent="1">
          <mxGeometry x="-850" y="-1230" width="120" height="270" as="geometry" />
        </mxCell>
        <mxCell id="RN5SD-zegDyc9XwIWD_d-16" value="" style="endArrow=none;html=1;rounded=0;exitX=-0.008;exitY=0.178;exitDx=0;exitDy=0;exitPerimeter=0;" edge="1" parent="1">
          <mxGeometry width="50" height="50" relative="1" as="geometry">
            <mxPoint x="-849.9999999999998" y="-1199.94" as="sourcePoint" />
            <mxPoint x="-728.04" y="-1200" as="targetPoint" />
          </mxGeometry>
        </mxCell>
        <mxCell id="RN5SD-zegDyc9XwIWD_d-17" value="" style="endArrow=none;html=1;rounded=0;exitX=-0.008;exitY=0.178;exitDx=0;exitDy=0;exitPerimeter=0;" edge="1" parent="1">
          <mxGeometry width="50" height="50" relative="1" as="geometry">
            <mxPoint x="-850" y="-1160" as="sourcePoint" />
            <mxPoint x="-728" y="-1160" as="targetPoint" />
          </mxGeometry>
        </mxCell>
        <mxCell id="RN5SD-zegDyc9XwIWD_d-18" value="" style="endArrow=none;html=1;rounded=0;exitX=-0.008;exitY=0.178;exitDx=0;exitDy=0;exitPerimeter=0;" edge="1" parent="1">
          <mxGeometry width="50" height="50" relative="1" as="geometry">
            <mxPoint x="-851" y="-1120" as="sourcePoint" />
            <mxPoint x="-729" y="-1120" as="targetPoint" />
          </mxGeometry>
        </mxCell>
        <mxCell id="RN5SD-zegDyc9XwIWD_d-19" value="" style="endArrow=none;html=1;rounded=0;exitX=-0.008;exitY=0.178;exitDx=0;exitDy=0;exitPerimeter=0;" edge="1" parent="1">
          <mxGeometry width="50" height="50" relative="1" as="geometry">
            <mxPoint x="-850" y="-1080" as="sourcePoint" />
            <mxPoint x="-728" y="-1080" as="targetPoint" />
          </mxGeometry>
        </mxCell>
        <mxCell id="RN5SD-zegDyc9XwIWD_d-20" value="" style="endArrow=none;html=1;rounded=0;exitX=-0.008;exitY=0.178;exitDx=0;exitDy=0;exitPerimeter=0;" edge="1" parent="1">
          <mxGeometry width="50" height="50" relative="1" as="geometry">
            <mxPoint x="-851" y="-1040" as="sourcePoint" />
            <mxPoint x="-729" y="-1040" as="targetPoint" />
          </mxGeometry>
        </mxCell>
        <mxCell id="RN5SD-zegDyc9XwIWD_d-21" value="" style="endArrow=none;html=1;rounded=0;exitX=-0.008;exitY=0.178;exitDx=0;exitDy=0;exitPerimeter=0;" edge="1" parent="1">
          <mxGeometry width="50" height="50" relative="1" as="geometry">
            <mxPoint x="-850" y="-1005.34" as="sourcePoint" />
            <mxPoint x="-728" y="-1005.34" as="targetPoint" />
          </mxGeometry>
        </mxCell>
        <mxCell id="RN5SD-zegDyc9XwIWD_d-22" value="20" style="text;html=1;align=center;verticalAlign=middle;whiteSpace=wrap;rounded=0;" vertex="1" parent="1">
          <mxGeometry x="-960" y="-1230" width="60" height="30" as="geometry" />
        </mxCell>
        <mxCell id="RN5SD-zegDyc9XwIWD_d-23" value="99" style="text;html=1;align=center;verticalAlign=middle;whiteSpace=wrap;rounded=0;" vertex="1" parent="1">
          <mxGeometry x="-960" y="-1190" width="60" height="30" as="geometry" />
        </mxCell>
        <mxCell id="RN5SD-zegDyc9XwIWD_d-24" value="25" style="text;html=1;align=center;verticalAlign=middle;whiteSpace=wrap;rounded=0;" vertex="1" parent="1">
          <mxGeometry x="-960" y="-1070" width="60" height="30" as="geometry" />
        </mxCell>
        <mxCell id="RN5SD-zegDyc9XwIWD_d-25" value="0" style="text;html=1;align=center;verticalAlign=middle;whiteSpace=wrap;rounded=0;" vertex="1" parent="1">
          <mxGeometry x="-960" y="-1000" width="60" height="30" as="geometry" />
        </mxCell>
        <mxCell id="RN5SD-zegDyc9XwIWD_d-26" value="10" style="text;html=1;align=center;verticalAlign=middle;whiteSpace=wrap;rounded=0;" vertex="1" parent="1">
          <mxGeometry x="-960" y="-1040" width="60" height="30" as="geometry" />
        </mxCell>
        <mxCell id="RN5SD-zegDyc9XwIWD_d-27" value="7" style="text;html=1;align=center;verticalAlign=middle;whiteSpace=wrap;rounded=0;" vertex="1" parent="1">
          <mxGeometry x="-960" y="-1150" width="60" height="30" as="geometry" />
        </mxCell>
        <mxCell id="RN5SD-zegDyc9XwIWD_d-28" value="Index" style="text;html=1;align=center;verticalAlign=middle;whiteSpace=wrap;rounded=0;" vertex="1" parent="1">
          <mxGeometry x="-1047.5" y="-1260" width="60" height="30" as="geometry" />
        </mxCell>
        <mxCell id="RN5SD-zegDyc9XwIWD_d-29" value="0" style="text;html=1;align=center;verticalAlign=middle;whiteSpace=wrap;rounded=0;" vertex="1" parent="1">
          <mxGeometry x="-1047.5" y="-1110" width="60" height="30" as="geometry" />
        </mxCell>
        <mxCell id="RN5SD-zegDyc9XwIWD_d-30" value="1" style="text;html=1;align=center;verticalAlign=middle;resizable=0;points=[];autosize=1;strokeColor=none;fillColor=none;" vertex="1" parent="1">
          <mxGeometry x="-1028" y="-996" width="25" height="26" as="geometry" />
        </mxCell>
        <mxCell id="RN5SD-zegDyc9XwIWD_d-31" value="2" style="text;html=1;align=center;verticalAlign=middle;resizable=0;points=[];autosize=1;strokeColor=none;fillColor=none;" vertex="1" parent="1">
          <mxGeometry x="-1030" y="-1154" width="25" height="26" as="geometry" />
        </mxCell>
        <mxCell id="RN5SD-zegDyc9XwIWD_d-32" value="3" style="text;html=1;align=center;verticalAlign=middle;resizable=0;points=[];autosize=1;strokeColor=none;fillColor=none;" vertex="1" parent="1">
          <mxGeometry x="-1028" y="-1036" width="25" height="26" as="geometry" />
        </mxCell>
        <mxCell id="RN5SD-zegDyc9XwIWD_d-33" value="4" style="text;html=1;align=center;verticalAlign=middle;resizable=0;points=[];autosize=1;strokeColor=none;fillColor=none;" vertex="1" parent="1">
          <mxGeometry x="-1030" y="-1230" width="25" height="26" as="geometry" />
        </mxCell>
        <mxCell id="RN5SD-zegDyc9XwIWD_d-34" value="5" style="text;html=1;align=center;verticalAlign=middle;resizable=0;points=[];autosize=1;strokeColor=none;fillColor=none;" vertex="1" parent="1">
          <mxGeometry x="-1030" y="-1070" width="25" height="26" as="geometry" />
        </mxCell>
        <mxCell id="RN5SD-zegDyc9XwIWD_d-35" value="6" style="text;html=1;align=center;verticalAlign=middle;resizable=0;points=[];autosize=1;strokeColor=none;fillColor=none;" vertex="1" parent="1">
          <mxGeometry x="-1030" y="-1192" width="25" height="26" as="geometry" />
        </mxCell>
        <mxCell id="RN5SD-zegDyc9XwIWD_d-38" value="Stack A" style="text;html=1;align=center;verticalAlign=middle;resizable=0;points=[];autosize=1;strokeColor=none;fillColor=none;" vertex="1" parent="1">
          <mxGeometry x="-962" y="-1260" width="59" height="26" as="geometry" />
        </mxCell>
        <mxCell id="RN5SD-zegDyc9XwIWD_d-39" value="Stack B" style="text;html=1;align=center;verticalAlign=middle;resizable=0;points=[];autosize=1;strokeColor=none;fillColor=none;" vertex="1" parent="1">
          <mxGeometry x="-827" y="-1260" width="59" height="26" as="geometry" />
        </mxCell>
        <mxCell id="RN5SD-zegDyc9XwIWD_d-41" value="-3" style="rounded=0;whiteSpace=wrap;html=1;" vertex="1" parent="1">
          <mxGeometry x="-970.5" y="-890" width="120" height="270" as="geometry" />
        </mxCell>
        <mxCell id="RN5SD-zegDyc9XwIWD_d-42" value="" style="endArrow=none;html=1;rounded=0;exitX=-0.008;exitY=0.178;exitDx=0;exitDy=0;exitPerimeter=0;" edge="1" parent="1">
          <mxGeometry width="50" height="50" relative="1" as="geometry">
            <mxPoint x="-970.4999999999998" y="-859.94" as="sourcePoint" />
            <mxPoint x="-848.54" y="-860" as="targetPoint" />
          </mxGeometry>
        </mxCell>
        <mxCell id="RN5SD-zegDyc9XwIWD_d-43" value="" style="endArrow=none;html=1;rounded=0;exitX=-0.008;exitY=0.178;exitDx=0;exitDy=0;exitPerimeter=0;" edge="1" parent="1">
          <mxGeometry width="50" height="50" relative="1" as="geometry">
            <mxPoint x="-970.5" y="-820" as="sourcePoint" />
            <mxPoint x="-848.5" y="-820" as="targetPoint" />
          </mxGeometry>
        </mxCell>
        <mxCell id="RN5SD-zegDyc9XwIWD_d-44" value="" style="endArrow=none;html=1;rounded=0;exitX=-0.008;exitY=0.178;exitDx=0;exitDy=0;exitPerimeter=0;" edge="1" parent="1">
          <mxGeometry width="50" height="50" relative="1" as="geometry">
            <mxPoint x="-971.5" y="-780" as="sourcePoint" />
            <mxPoint x="-849.5" y="-780" as="targetPoint" />
          </mxGeometry>
        </mxCell>
        <mxCell id="RN5SD-zegDyc9XwIWD_d-45" value="" style="endArrow=none;html=1;rounded=0;exitX=-0.008;exitY=0.178;exitDx=0;exitDy=0;exitPerimeter=0;" edge="1" parent="1">
          <mxGeometry width="50" height="50" relative="1" as="geometry">
            <mxPoint x="-970.5" y="-740" as="sourcePoint" />
            <mxPoint x="-848.5" y="-740" as="targetPoint" />
          </mxGeometry>
        </mxCell>
        <mxCell id="RN5SD-zegDyc9XwIWD_d-46" value="" style="endArrow=none;html=1;rounded=0;exitX=-0.008;exitY=0.178;exitDx=0;exitDy=0;exitPerimeter=0;" edge="1" parent="1">
          <mxGeometry width="50" height="50" relative="1" as="geometry">
            <mxPoint x="-971.5" y="-700" as="sourcePoint" />
            <mxPoint x="-849.5" y="-700" as="targetPoint" />
          </mxGeometry>
        </mxCell>
        <mxCell id="RN5SD-zegDyc9XwIWD_d-47" value="" style="endArrow=none;html=1;rounded=0;exitX=-0.008;exitY=0.178;exitDx=0;exitDy=0;exitPerimeter=0;" edge="1" parent="1">
          <mxGeometry width="50" height="50" relative="1" as="geometry">
            <mxPoint x="-970.5" y="-665.34" as="sourcePoint" />
            <mxPoint x="-848.5" y="-665.34" as="targetPoint" />
          </mxGeometry>
        </mxCell>
        <mxCell id="RN5SD-zegDyc9XwIWD_d-48" value="" style="rounded=0;whiteSpace=wrap;html=1;" vertex="1" parent="1">
          <mxGeometry x="-830.5" y="-890" width="120" height="270" as="geometry" />
        </mxCell>
        <mxCell id="RN5SD-zegDyc9XwIWD_d-49" value="" style="endArrow=none;html=1;rounded=0;exitX=-0.008;exitY=0.178;exitDx=0;exitDy=0;exitPerimeter=0;" edge="1" parent="1">
          <mxGeometry width="50" height="50" relative="1" as="geometry">
            <mxPoint x="-830.4999999999998" y="-859.94" as="sourcePoint" />
            <mxPoint x="-708.54" y="-860" as="targetPoint" />
          </mxGeometry>
        </mxCell>
        <mxCell id="RN5SD-zegDyc9XwIWD_d-50" value="" style="endArrow=none;html=1;rounded=0;exitX=-0.008;exitY=0.178;exitDx=0;exitDy=0;exitPerimeter=0;" edge="1" parent="1">
          <mxGeometry width="50" height="50" relative="1" as="geometry">
            <mxPoint x="-830.5" y="-820" as="sourcePoint" />
            <mxPoint x="-708.5" y="-820" as="targetPoint" />
          </mxGeometry>
        </mxCell>
        <mxCell id="RN5SD-zegDyc9XwIWD_d-51" value="" style="endArrow=none;html=1;rounded=0;exitX=-0.008;exitY=0.178;exitDx=0;exitDy=0;exitPerimeter=0;" edge="1" parent="1">
          <mxGeometry width="50" height="50" relative="1" as="geometry">
            <mxPoint x="-831.5" y="-780" as="sourcePoint" />
            <mxPoint x="-709.5" y="-780" as="targetPoint" />
          </mxGeometry>
        </mxCell>
        <mxCell id="RN5SD-zegDyc9XwIWD_d-52" value="" style="endArrow=none;html=1;rounded=0;exitX=-0.008;exitY=0.178;exitDx=0;exitDy=0;exitPerimeter=0;" edge="1" parent="1">
          <mxGeometry width="50" height="50" relative="1" as="geometry">
            <mxPoint x="-830.5" y="-740" as="sourcePoint" />
            <mxPoint x="-708.5" y="-740" as="targetPoint" />
          </mxGeometry>
        </mxCell>
        <mxCell id="RN5SD-zegDyc9XwIWD_d-53" value="" style="endArrow=none;html=1;rounded=0;exitX=-0.008;exitY=0.178;exitDx=0;exitDy=0;exitPerimeter=0;" edge="1" parent="1">
          <mxGeometry width="50" height="50" relative="1" as="geometry">
            <mxPoint x="-831.5" y="-700" as="sourcePoint" />
            <mxPoint x="-709.5" y="-700" as="targetPoint" />
            <Array as="points">
              <mxPoint x="-808" y="-700" />
            </Array>
          </mxGeometry>
        </mxCell>
        <mxCell id="RN5SD-zegDyc9XwIWD_d-54" value="" style="endArrow=none;html=1;rounded=0;exitX=-0.008;exitY=0.178;exitDx=0;exitDy=0;exitPerimeter=0;" edge="1" parent="1">
          <mxGeometry width="50" height="50" relative="1" as="geometry">
            <mxPoint x="-830.5" y="-665.34" as="sourcePoint" />
            <mxPoint x="-708.5" y="-665.34" as="targetPoint" />
          </mxGeometry>
        </mxCell>
        <mxCell id="RN5SD-zegDyc9XwIWD_d-55" value="20" style="text;html=1;align=center;verticalAlign=middle;whiteSpace=wrap;rounded=0;" vertex="1" parent="1">
          <mxGeometry x="-940.5" y="-890" width="60" height="30" as="geometry" />
        </mxCell>
        <mxCell id="RN5SD-zegDyc9XwIWD_d-56" value="99" style="text;html=1;align=center;verticalAlign=middle;whiteSpace=wrap;rounded=0;" vertex="1" parent="1">
          <mxGeometry x="-940.5" y="-850" width="60" height="30" as="geometry" />
        </mxCell>
        <mxCell id="RN5SD-zegDyc9XwIWD_d-57" value="25" style="text;html=1;align=center;verticalAlign=middle;whiteSpace=wrap;rounded=0;" vertex="1" parent="1">
          <mxGeometry x="-940.5" y="-730" width="60" height="30" as="geometry" />
        </mxCell>
        <mxCell id="RN5SD-zegDyc9XwIWD_d-58" value="0" style="text;html=1;align=center;verticalAlign=middle;whiteSpace=wrap;rounded=0;" vertex="1" parent="1">
          <mxGeometry x="-940.5" y="-660" width="60" height="30" as="geometry" />
        </mxCell>
        <mxCell id="RN5SD-zegDyc9XwIWD_d-59" value="10" style="text;html=1;align=center;verticalAlign=middle;whiteSpace=wrap;rounded=0;" vertex="1" parent="1">
          <mxGeometry x="-940.5" y="-700" width="60" height="30" as="geometry" />
        </mxCell>
        <mxCell id="RN5SD-zegDyc9XwIWD_d-60" value="7" style="text;html=1;align=center;verticalAlign=middle;whiteSpace=wrap;rounded=0;" vertex="1" parent="1">
          <mxGeometry x="-940.5" y="-810" width="60" height="30" as="geometry" />
        </mxCell>
        <mxCell id="RN5SD-zegDyc9XwIWD_d-61" value="Index" style="text;html=1;align=center;verticalAlign=middle;whiteSpace=wrap;rounded=0;" vertex="1" parent="1">
          <mxGeometry x="-1024" y="-910" width="60" height="30" as="geometry" />
        </mxCell>
        <mxCell id="RN5SD-zegDyc9XwIWD_d-62" value="0" style="text;html=1;align=center;verticalAlign=middle;whiteSpace=wrap;rounded=0;" vertex="1" parent="1">
          <mxGeometry x="-1028" y="-770" width="60" height="30" as="geometry" />
        </mxCell>
        <mxCell id="RN5SD-zegDyc9XwIWD_d-63" value="1" style="text;html=1;align=center;verticalAlign=middle;resizable=0;points=[];autosize=1;strokeColor=none;fillColor=none;" vertex="1" parent="1">
          <mxGeometry x="-1008.5" y="-656" width="25" height="26" as="geometry" />
        </mxCell>
        <mxCell id="RN5SD-zegDyc9XwIWD_d-64" value="2" style="text;html=1;align=center;verticalAlign=middle;resizable=0;points=[];autosize=1;strokeColor=none;fillColor=none;" vertex="1" parent="1">
          <mxGeometry x="-1010.5" y="-814" width="25" height="26" as="geometry" />
        </mxCell>
        <mxCell id="RN5SD-zegDyc9XwIWD_d-65" value="3" style="text;html=1;align=center;verticalAlign=middle;resizable=0;points=[];autosize=1;strokeColor=none;fillColor=none;" vertex="1" parent="1">
          <mxGeometry x="-1008.5" y="-696" width="25" height="26" as="geometry" />
        </mxCell>
        <mxCell id="RN5SD-zegDyc9XwIWD_d-66" value="4" style="text;html=1;align=center;verticalAlign=middle;resizable=0;points=[];autosize=1;strokeColor=none;fillColor=none;" vertex="1" parent="1">
          <mxGeometry x="-1010.5" y="-890" width="25" height="26" as="geometry" />
        </mxCell>
        <mxCell id="RN5SD-zegDyc9XwIWD_d-67" value="5" style="text;html=1;align=center;verticalAlign=middle;resizable=0;points=[];autosize=1;strokeColor=none;fillColor=none;" vertex="1" parent="1">
          <mxGeometry x="-1010.5" y="-730" width="25" height="26" as="geometry" />
        </mxCell>
        <mxCell id="RN5SD-zegDyc9XwIWD_d-68" value="6" style="text;html=1;align=center;verticalAlign=middle;resizable=0;points=[];autosize=1;strokeColor=none;fillColor=none;" vertex="1" parent="1">
          <mxGeometry x="-1010.5" y="-852" width="25" height="26" as="geometry" />
        </mxCell>
        <mxCell id="RN5SD-zegDyc9XwIWD_d-69" value="Stack A" style="text;html=1;align=center;verticalAlign=middle;resizable=0;points=[];autosize=1;strokeColor=none;fillColor=none;" vertex="1" parent="1">
          <mxGeometry x="-940.5" y="-913" width="59" height="26" as="geometry" />
        </mxCell>
        <mxCell id="RN5SD-zegDyc9XwIWD_d-70" value="Stack B" style="text;html=1;align=center;verticalAlign=middle;resizable=0;points=[];autosize=1;strokeColor=none;fillColor=none;" vertex="1" parent="1">
          <mxGeometry x="-803" y="-910" width="59" height="26" as="geometry" />
        </mxCell>
      </root>
    </mxGraphModel>
  </diagram>
</mxfile>
